# xmcd
#
# Track frame offsets: 
#        150
#        12525
#        28260
#        43433
#        59787
#        74312
#        91761
#        105035
#        123141
#        138870
#        153416
#        169783
#        183529
#        198118
#        215664
#        246609
#
# Disc length: 3834 seconds
#
# Revision: 1
# Processed by: cddbd v1.5.2PL0 Copyright (c) Steve Scherf et al.
# Submitted via: ExactAudioCopy v1.0b3
#
DISCID=e70ef810
DTITLE=Dr. Dooom - Dr. Dooom 2
DYEAR=2008
DGENRE=Alternative HipHop
TTITLE0=Simon
TTITLE1=The Countdown
TTITLE2=R.I.P. Dr. Octagon
TTITLE3=I'm Creepin'
TTITLE4=I Followed You
TTITLE5=Run For Your Life (feat. Fathed)
TTITLE6=Step-N-Fetchers
TTITLE7=The God of Rap
TTITLE8=How Sexy (feat. Denis Deft)
TTITLE9=That Girl is a Monster
TTITLE10=Do Not Disturb
TTITLE11=Take That Ride
TTITLE12=Mopped Up
TTITLE13=Always Talkin' Out Your Ass
TTITLE14=Surgery (feat. Motion Man)
TTITLE15=Data
EXTD=
EXTT0=
EXTT1=
EXTT2=
EXTT3=
EXTT4=
EXTT5=
EXTT6=
EXTT7=
EXTT8=
EXTT9=
EXTT10=
EXTT11=
EXTT12=
EXTT13=
EXTT14=
EXTT15=
PLAYORDER=
